<svg width="40" height="36" viewBox="0 0 40 36" fill="none" xmlns="http://www.w3.org/2000/svg">
<path d="M1.66699 30.8333V12.5C1.66699 11.5275 2.0533 10.5949 2.74093 9.90728C3.42857 9.21964 4.3612 8.83333 5.33366 8.83333H6.25033C6.81956 8.83333 7.38097 8.7008 7.89011 8.44623C8.39925 8.19167 8.84212 7.82205 9.18366 7.36667L13.2537 1.94C13.3561 1.80338 13.489 1.6925 13.6417 1.61613C13.7945 1.53976 13.9629 1.5 14.1337 1.5H25.867C26.0378 1.5 26.2062 1.53976 26.3589 1.61613C26.5117 1.6925 26.6445 1.80338 26.747 1.94L30.817 7.36667C31.1585 7.82205 31.6014 8.19167 32.1106 8.44623C32.6197 8.7008 33.1811 8.83333 33.7503 8.83333H34.667C35.6395 8.83333 36.5721 9.21964 37.2597 9.90728C37.9474 10.5949 38.3337 11.5275 38.3337 12.5V30.8333C38.3337 31.8058 37.9474 32.7384 37.2597 33.4261C36.5721 34.1137 35.6395 34.5 34.667 34.5H5.33366C4.3612 34.5 3.42857 34.1137 2.74093 33.4261C2.0533 32.7384 1.66699 31.8058 1.66699 30.8333Z" stroke="white" stroke-width="2.5" stroke-linecap="round" stroke-linejoin="round"/>
<path d="M20.0003 27.1667C21.9452 27.1667 23.8105 26.394 25.1858 25.0188C26.561 23.6435 27.3337 21.7783 27.3337 19.8333C27.3337 17.8884 26.561 16.0231 25.1858 14.6479C23.8105 13.2726 21.9452 12.5 20.0003 12.5C18.0554 12.5 16.1901 13.2726 14.8149 14.6479C13.4396 16.0231 12.667 17.8884 12.667 19.8333C12.667 21.7783 13.4396 23.6435 14.8149 25.0188C16.1901 26.394 18.0554 27.1667 20.0003 27.1667Z" stroke="white" stroke-width="2.5" stroke-linecap="round" stroke-linejoin="round"/>
</svg>
