<svg width="40" height="38" viewBox="0 0 40 38" fill="none" xmlns="http://www.w3.org/2000/svg">
<path d="M20.0003 23.5835C22.9177 23.5835 25.7156 22.4246 27.7785 20.3617C29.8414 18.2988 31.0003 15.5009 31.0003 12.5835C31.0003 9.66611 29.8414 6.86822 27.7785 4.80532C25.7156 2.74242 22.9177 1.5835 20.0003 1.5835C17.0829 1.5835 14.2851 2.74242 12.2222 4.80532C10.1593 6.86822 9.00033 9.66611 9.00033 12.5835C9.00033 15.5009 10.1593 18.2988 12.2222 20.3617C14.2851 22.4246 17.0829 23.5835 20.0003 23.5835Z" stroke="white" stroke-width="2.5" stroke-linecap="round" stroke-linejoin="round"/>
<path d="M27.3337 36.4168C28.7782 36.4168 30.2086 36.1323 31.5432 35.5795C32.8778 35.0267 34.0904 34.2164 35.1118 33.195C36.1333 32.1736 36.9435 30.9609 37.4963 29.6263C38.0491 28.2918 38.3337 26.8614 38.3337 25.4168C38.3337 23.9723 38.0491 22.5419 37.4963 21.2073C36.9435 19.8727 36.1333 18.6601 35.1118 17.6386C34.0904 16.6172 32.8778 15.8069 31.5432 15.2541C30.2086 14.7013 28.7782 14.4168 27.3337 14.4168C24.4163 14.4168 21.6184 15.5757 19.5555 17.6386C17.4926 19.7015 16.3337 22.4994 16.3337 25.4168C16.3337 28.3342 17.4926 31.1321 19.5555 33.195C21.6184 35.2579 24.4163 36.4168 27.3337 36.4168Z" stroke="white" stroke-width="2.5" stroke-linecap="round" stroke-linejoin="round"/>
<path d="M12.667 36.4168C14.1115 36.4168 15.5419 36.1323 16.8765 35.5795C18.2111 35.0267 19.4237 34.2164 20.4452 33.195C21.4666 32.1736 22.2769 30.9609 22.8297 29.6263C23.3825 28.2918 23.667 26.8614 23.667 25.4168C23.667 23.9723 23.3825 22.5419 22.8297 21.2073C22.2769 19.8727 21.4666 18.6601 20.4452 17.6386C19.4237 16.6172 18.2111 15.8069 16.8765 15.2541C15.5419 14.7013 14.1115 14.4168 12.667 14.4168C9.74961 14.4168 6.95172 15.5757 4.88882 17.6386C2.82592 19.7015 1.66699 22.4994 1.66699 25.4168C1.66699 28.3342 2.82592 31.1321 4.88882 33.195C6.95172 35.2579 9.74961 36.4168 12.667 36.4168Z" stroke="white" stroke-width="2.5" stroke-linecap="round" stroke-linejoin="round"/>
</svg>
