<?xml version="1.0" standalone="no"?>
<!DOCTYPE svg PUBLIC "-//W3C//DTD SVG 20010904//EN"
 "http://www.w3.org/TR/2001/REC-SVG-20010904/DTD/svg10.dtd">
<svg version="1.0" xmlns="http://www.w3.org/2000/svg"
 width="1080.000000pt" height="1080.000000pt" viewBox="0 0 1080.000000 1080.000000"
 preserveAspectRatio="xMidYMid meet">

<g transform="translate(0.000000,1080.000000) scale(0.100000,-0.100000)"
fill="#000000" stroke="none">
<path d="M9241 9189 c-13 -5 -36 -18 -51 -29 -28 -20 -46 -20 -1394 -20
l-1366 0 0 -506 0 -505 23 8 c12 4 57 8 100 8 l77 0 0 402 0 403 1263 0 1262
0 13 -21 c17 -26 87 -58 130 -59 101 0 190 105 167 197 -23 93 -139 156 -224
122z"/>
<path d="M9248 8790 c-15 -4 -40 -17 -57 -29 l-29 -21 -1156 0 -1156 0 0 -211
0 -210 -32 -41 c-30 -36 -33 -46 -33 -107 0 -50 5 -72 20 -93 51 -68 160 -90
226 -45 95 64 106 182 23 264 -10 11 -14 44 -14 134 l0 119 1058 0 1057 0 13
-21 c7 -11 32 -29 55 -40 78 -35 148 -20 205 45 53 61 56 128 6 193 -44 58
-119 83 -186 63z"/>
<path d="M1445 8052 c-102 -49 -141 -149 -96 -248 10 -23 24 -45 30 -48 8 -5
11 -225 11 -772 l0 -765 60 -37 c33 -20 59 -40 57 -45 -1 -4 -27 -22 -57 -40
l-55 -33 -3 -552 -2 -551 -25 -37 c-108 -159 56 -354 231 -275 64 29 97 80
102 156 5 70 -8 103 -57 149 l-31 30 0 477 0 478 60 36 60 36 60 -37 60 -37 0
-482 0 -482 -25 -23 c-36 -34 -59 -101 -53 -155 19 -165 233 -222 334 -90 22
30 29 50 32 100 4 66 -8 104 -47 139 -21 19 -21 23 -21 567 l0 548 -60 36
c-33 20 -60 40 -60 44 0 5 27 25 60 45 l60 37 0 288 c0 281 0 288 21 307 30
27 49 76 49 128 0 110 -75 186 -185 186 -165 0 -242 -185 -132 -316 l27 -32 0
-220 0 -221 -60 -36 -60 -36 -56 31 c-30 18 -57 37 -60 44 -2 6 -3 284 -2 618
l3 607 105 -130 105 -129 620 2 620 3 174 228 174 227 745 0 744 0 34 -30 c76
-66 184 -60 256 17 53 55 63 136 27 211 -52 106 -202 133 -289 52 l-32 -30
-797 0 -796 0 -175 -230 -175 -230 -512 0 -513 0 -114 138 -115 137 -1 63 c0
43 -7 76 -20 102 -42 82 -154 121 -235 82z"/>
<path d="M2088 8060 c-102 -30 -157 -152 -114 -253 18 -43 77 -94 125 -107 61
-16 135 4 175 49 18 20 28 21 239 21 l219 0 34 -30 c74 -64 186 -59 250 12 74
81 72 189 -5 264 -67 65 -168 68 -247 8 l-44 -34 -213 0 -212 1 -28 28 c-42
43 -115 60 -179 41z"/>
<path d="M5588 7763 l-173 -228 -830 -3 -829 -2 -25 24 c-64 59 -142 72 -219
35 -103 -50 -133 -191 -60 -284 61 -78 209 -87 272 -16 l19 21 888 0 887 0
174 228 174 227 492 3 492 2 0 -1393 0 -1393 -31 -30 c-49 -46 -62 -79 -57
-149 5 -76 38 -127 102 -156 175 -79 339 116 231 275 l-25 37 0 1514 0 1515
-654 0 -654 0 -174 -227z"/>
<path d="M5872 7589 c-120 -60 -135 -232 -28 -314 64 -49 171 -47 230 5 l34
30 141 0 141 0 0 -1163 0 -1164 -26 -24 c-62 -57 -80 -150 -43 -227 65 -133
261 -134 329 -1 33 65 21 171 -23 208 -16 12 -17 115 -17 1302 l0 1289 -248 0
c-242 0 -249 1 -268 21 -27 31 -93 59 -139 59 -22 0 -59 -10 -83 -21z"/>
<path d="M7310 7139 c-119 -48 -135 -215 -28 -286 63 -42 174 -31 217 21 11
14 43 16 202 16 l188 0 45 -56 c26 -31 43 -61 39 -67 -4 -7 -17 -29 -30 -49
l-23 -38 -305 0 -305 0 0 -95 0 -95 362 2 363 3 124 198 124 197 441 0 440 0
27 -26 c53 -50 151 -52 213 -3 34 27 66 89 66 130 0 18 -11 51 -25 75 -52 88
-174 110 -255 45 l-39 -31 -490 0 -490 0 -36 -60 c-20 -33 -40 -60 -44 -60 -5
0 -29 27 -55 60 l-47 60 -234 0 -233 0 -30 25 c-52 44 -123 57 -182 34z"/>
<path d="M4520 7111 c-19 -10 -48 -35 -64 -55 -54 -66 -44 -194 18 -245 14
-12 16 -45 16 -225 l0 -211 -54 -43 c-30 -23 -61 -44 -68 -47 -7 -3 -35 8 -61
24 l-47 30 -2 338 -3 338 -107 3 -108 3 0 -403 1 -403 222 -135 222 -135 3
-489 2 -490 -24 -25 c-68 -72 -58 -208 19 -269 93 -73 234 -43 284 60 36 76
21 169 -38 222 -21 19 -21 23 -21 565 l0 546 -74 44 -74 45 74 55 73 56 1 261
c0 254 1 261 21 280 31 27 59 92 59 137 0 42 -22 101 -48 130 -50 55 -156 74
-222 38z"/>
<path d="M9225 6736 c-16 -7 -39 -23 -49 -35 -19 -21 -22 -21 -473 -21 l-454
0 3 -92 3 -93 455 -3 454 -2 26 -24 c51 -49 149 -53 209 -8 36 26 71 90 71
131 0 111 -138 194 -245 147z"/>
<path d="M4040 5472 l0 -499 -25 -23 c-36 -34 -59 -101 -53 -155 14 -123 146
-198 260 -147 67 29 101 80 106 157 4 66 -8 104 -47 139 -21 19 -21 24 -21
523 l0 503 -110 0 -110 0 0 -498z"/>
<path d="M7330 4828 c-77 -22 -120 -79 -120 -161 0 -73 59 -142 132 -153 55
-9 104 4 142 37 l34 29 202 -2 202 -3 33 -51 33 -50 -32 -52 -31 -52 -552 0
c-304 0 -553 2 -553 4 0 3 50 44 110 91 111 87 134 115 83 99 -54 -17 -146
-10 -187 14 l-38 23 -96 -77 c-94 -76 -96 -77 -149 -75 -104 4 -191 -80 -180
-174 5 -52 43 -107 89 -131 45 -23 145 -16 183 14 l28 22 686 0 687 0 29 50
c17 27 33 50 38 50 4 0 21 -22 38 -50 l31 -50 494 0 495 0 37 -25 c29 -20 49
-25 98 -25 73 0 117 25 151 85 29 51 29 97 1 147 -57 101 -199 117 -279 32
l-22 -24 -432 0 -432 0 -32 51 -32 52 36 53 35 54 431 0 430 0 39 -31 c81 -65
203 -43 255 45 30 52 32 94 5 145 -38 75 -114 110 -193 90 -24 -6 -56 -21 -70
-35 l-26 -24 -493 0 -494 0 -33 -55 c-18 -30 -35 -55 -36 -55 -1 0 -19 25 -39
55 l-36 55 -259 0 c-222 0 -260 2 -272 16 -32 38 -112 58 -169 42z"/>
<path d="M5867 3943 c-4 -3 -7 -41 -7 -84 0 -75 1 -78 31 -99 l30 -22 -2 -123
c-2 -124 2 -148 24 -139 10 3 12 37 9 137 -3 132 -3 132 -33 158 -26 23 -29
31 -29 88 l0 63 205 -4 c190 -3 205 -2 205 15 0 16 -17 17 -213 17 -118 0
-217 -3 -220 -7z"/>
<path d="M6098 3892 l-176 -2 -4 -46 c-4 -53 3 -69 26 -61 13 5 16 14 10 43
l-7 36 177 -3 c170 -4 177 -3 174 15 -4 23 14 22 -200 18z"/>
<path d="M1349 3843 c-6 -39 5 -319 12 -321 6 -3 6 -8 0 -15 -5 -7 -11 -66
-12 -132 l-4 -120 25 0 25 0 0 115 c0 96 3 115 15 115 12 0 15 -19 15 -115 l0
-115 25 0 25 0 -3 120 c-2 66 -8 124 -13 129 -5 5 -5 14 0 20 5 6 11 41 14 78
5 71 -5 94 -36 82 -13 -5 -16 -19 -14 -72 2 -56 -1 -67 -15 -70 -16 -3 -18 7
-18 109 0 106 1 112 16 91 14 -21 23 -22 127 -22 l112 0 29 41 29 41 153 -4
c129 -3 154 -1 159 11 12 31 -18 36 -177 33 l-158 -3 -27 -39 -28 -40 -91 0
c-99 0 -112 6 -133 63 -10 25 -49 40 -52 20z"/>
<path d="M1453 3833 c-12 -32 4 -38 93 -38 88 0 89 0 89 25 0 24 -1 24 -89 25
-63 0 -90 -3 -93 -12z"/>
<path d="M2815 3841 c-128 -33 -194 -127 -195 -276 0 -95 10 -135 49 -197 43
-67 120 -103 221 -103 91 0 140 16 190 61 59 53 84 121 84 229 1 73 -3 100
-22 141 -28 61 -72 107 -126 129 -45 19 -157 28 -201 16z m156 -104 c52 -34
79 -97 79 -182 0 -54 -5 -82 -22 -115 -59 -116 -201 -122 -266 -11 -23 39 -27
57 -27 126 0 67 4 87 25 124 45 78 141 105 211 58z"/>
<path d="M3791 3833 c-20 -18 -211 -491 -211 -525 0 -20 37 -48 62 -48 22 0
51 46 68 106 l13 44 117 0 117 0 22 -60 c24 -65 43 -90 70 -90 28 0 54 25 54
53 0 38 -183 488 -210 515 -27 27 -73 29 -102 5z m92 -226 c20 -56 37 -105 37
-109 0 -5 -36 -8 -81 -8 -61 0 -80 3 -77 13 3 6 20 56 39 109 19 54 36 98 39
98 3 0 22 -46 43 -103z"/>
<path d="M7881 3833 c-20 -18 -211 -491 -211 -525 0 -20 37 -48 62 -48 22 0
51 46 68 106 l13 44 117 0 117 0 22 -60 c24 -65 43 -90 70 -90 28 0 54 25 54
53 0 38 -183 488 -210 515 -27 27 -73 29 -102 5z m92 -226 c20 -56 37 -105 37
-109 0 -5 -36 -8 -81 -8 -61 0 -80 3 -77 13 3 6 20 56 39 109 19 54 36 98 39
98 3 0 22 -46 43 -103z"/>
<path d="M2076 3799 l-29 -41 -171 3 -171 3 0 -24 c0 -21 5 -25 28 -24 15 0
96 1 180 2 l153 2 30 40 29 40 83 0 83 0 -2 -272 -2 -273 24 0 c20 0 24 5 23
28 0 15 -1 146 -2 292 l-2 265 -112 0 -113 0 -29 -41z"/>
<path d="M4573 3823 c-7 -2 -13 -18 -13 -34 0 -36 9 -38 169 -42 l124 -2 -161
-197 c-228 -277 -228 -278 86 -278 121 0 211 4 223 10 21 12 25 45 7 57 -7 4
-86 10 -175 13 l-161 5 159 194 c166 201 180 228 143 265 -13 14 -45 16 -202
15 -103 0 -193 -3 -199 -6z"/>
<path d="M6690 3823 c-8 -3 -18 -11 -22 -17 -4 -6 -8 -124 -8 -263 0 -215 2
-254 16 -267 17 -18 42 -20 64 -6 12 8 16 48 20 222 l5 213 50 -200 c52 -206
69 -245 113 -245 47 0 61 28 115 240 l52 205 5 -213 c4 -174 8 -214 20 -222
22 -14 47 -12 64 6 14 13 16 52 16 267 0 139 -4 258 -9 266 -5 8 -32 16 -65
19 -90 7 -95 1 -147 -192 -24 -91 -47 -166 -50 -166 -3 0 -18 48 -34 108 -46
178 -64 231 -85 242 -20 11 -95 12 -120 3z"/>
<path d="M8690 3810 c-20 -20 -21 -30 -18 -266 3 -230 4 -247 22 -260 24 -17
210 -19 287 -3 109 24 171 121 171 269 0 104 -25 172 -82 224 -48 43 -106 56
-250 56 -98 0 -112 -2 -130 -20z m287 -96 c39 -29 56 -69 61 -139 5 -76 -11
-137 -48 -178 -27 -31 -32 -32 -114 -36 l-86 -3 0 192 0 192 79 -3 c61 -3 86
-9 108 -25z"/>
<path d="M2114 3755 c-13 -34 3 -47 52 -39 l46 7 -3 -234 -2 -234 23 0 24 0
-3 250 c-1 138 -3 250 -4 251 -1 1 -30 4 -65 7 -50 6 -64 4 -68 -8z"/>
<path d="M5860 3586 l0 -125 30 -21 c28 -20 30 -25 30 -89 0 -53 -4 -72 -18
-84 -10 -10 -24 -17 -30 -17 -7 0 -12 -9 -12 -20 0 -19 7 -20 120 -20 87 0
120 3 120 12 0 9 3 9 12 0 8 -8 45 -12 100 -12 80 0 88 2 88 19 0 17 -6 18
-85 13 -76 -4 -85 -3 -85 12 0 16 10 17 83 15 76 -3 82 -2 82 16 0 15 -6 20
-25 18 -76 -5 -220 -4 -253 2 -37 7 -39 6 -35 -16 3 -21 8 -24 48 -24 81 0 60
-20 -25 -23 -64 -2 -77 0 -67 10 8 8 12 43 12 97 0 85 0 86 -31 106 l-31 20 4
118 c4 108 3 117 -14 117 -16 0 -18 -11 -18 -124z"/>
<path d="M1879 3669 c-8 -15 -8 -24 0 -32 17 -17 14 -84 -5 -91 -9 -3 -17 -6
-19 -6 -2 0 -5 28 -7 62 -2 50 -6 63 -20 66 -16 3 -18 -5 -18 -70 l0 -74 40
-23 40 -22 0 -80 c0 -44 -5 -90 -11 -101 -15 -28 13 -58 39 -42 14 10 16 26
14 125 -3 82 -7 117 -17 125 -12 9 -12 13 -1 25 18 18 28 133 13 148 -17 17
-35 13 -48 -10z"/>
<path d="M5980 3632 c0 -18 7 -21 50 -24 64 -4 70 -22 8 -26 -66 -4 -61 -22 6
-22 46 0 56 3 70 25 15 23 22 25 101 25 80 0 85 1 85 21 0 19 -4 20 -32 15
-47 -9 -206 -9 -251 -1 -33 6 -37 5 -37 -13z"/>
<path d="M6193 3583 c-73 -5 -85 -23 -15 -23 26 0 64 -3 85 -6 33 -6 37 -4 37
15 0 16 -6 21 -22 19 -13 -1 -51 -3 -85 -5z"/>
<path d="M1810 3398 c0 -46 -4 -90 -9 -97 -13 -20 5 -51 28 -51 26 0 27 10 23
128 -4 92 -6 102 -23 102 -17 0 -19 -8 -19 -82z"/>
<path d="M5860 3361 c0 -62 2 -71 18 -71 17 0 19 8 17 67 -1 55 -4 69 -18 71
-15 3 -17 -6 -17 -67z"/>
<path d="M3733 2890 c-90 -28 -130 -174 -73 -267 30 -49 65 -68 131 -68 99 0
153 60 153 170 0 68 -20 114 -64 146 -30 23 -103 32 -147 19z m119 -50 c37
-28 51 -72 46 -137 -4 -48 -10 -61 -37 -85 -47 -42 -102 -39 -148 7 -35 35
-35 36 -31 106 3 65 6 74 36 100 39 35 96 39 134 9z"/>
<path d="M4321 2878 c-58 -30 -81 -74 -81 -153 0 -111 55 -169 160 -170 37 0
68 7 95 21 40 21 40 21 43 87 l3 67 -71 0 c-63 0 -70 -2 -70 -20 0 -17 7 -20
50 -20 50 0 50 0 50 -33 0 -28 -5 -36 -35 -50 -97 -46 -185 10 -185 118 0 81
49 135 123 135 37 0 87 -32 87 -56 0 -16 9 -18 28 -5 12 7 11 14 -2 39 -20 39
-43 52 -104 58 -37 4 -57 0 -91 -18z"/>
<path d="M2520 2725 c0 -158 1 -165 20 -165 18 0 20 7 20 64 l0 63 75 5 c60 4
80 10 99 27 32 30 40 65 25 108 -15 47 -56 63 -159 63 l-80 0 0 -165z m184
109 c21 -20 20 -63 -1 -86 -12 -14 -31 -18 -80 -18 l-63 0 0 60 0 60 64 0 c45
0 69 -5 80 -16z"/>
<path d="M3070 2726 c0 -159 1 -166 20 -166 18 0 20 7 20 75 l0 75 36 0 c51 0
66 -11 114 -85 33 -50 48 -65 66 -65 13 0 24 2 24 5 0 10 -54 90 -78 117 l-25
27 25 10 c58 22 75 90 34 138 -23 27 -28 28 -130 31 l-106 4 0 -166z m191 114
c12 -7 19 -21 19 -40 0 -39 -23 -50 -104 -50 l-66 0 0 50 0 50 66 0 c36 0 74
-5 85 -10z"/>
<path d="M4860 2726 c0 -159 1 -166 20 -166 18 0 20 7 20 75 l0 75 36 0 c51 0
66 -11 114 -85 33 -50 48 -65 66 -65 13 0 24 2 24 5 0 10 -54 90 -78 117 l-25
27 25 10 c58 22 75 90 34 138 -23 27 -28 28 -130 31 l-106 4 0 -166z m191 114
c12 -7 19 -21 19 -40 0 -39 -23 -50 -104 -50 l-66 0 0 50 0 50 66 0 c36 0 74
-5 85 -10z"/>
<path d="M5527 2883 c-3 -4 -31 -73 -62 -153 -31 -80 -59 -151 -62 -157 -3 -8
4 -13 19 -13 19 0 27 9 41 50 l18 51 71 -3 70 -3 17 -45 c13 -36 22 -46 43
-48 l26 -3 -68 163 c-53 129 -71 164 -88 166 -11 2 -22 -1 -25 -5z m48 -105
c10 -29 20 -59 23 -65 3 -9 -11 -13 -48 -13 -37 0 -51 4 -48 13 3 6 13 36 23
65 11 28 22 52 25 52 3 0 14 -24 25 -52z"/>
<path d="M5980 2726 c0 -159 1 -166 20 -166 18 0 20 8 22 143 l3 142 48 -142
c39 -114 52 -143 67 -143 14 0 28 30 66 143 l49 142 3 -142 c2 -135 4 -143 22
-143 19 0 20 7 20 166 l0 165 -32 -3 c-31 -3 -32 -5 -76 -136 -24 -73 -46
-131 -49 -128 -3 3 -24 63 -47 133 l-42 128 -37 3 -37 3 0 -165z"/>
<path d="M6610 2726 c0 -159 1 -166 20 -166 18 0 20 8 22 143 l3 142 48 -142
c39 -114 52 -143 67 -143 14 0 28 30 66 143 l49 142 3 -142 c2 -135 4 -143 22
-143 19 0 20 7 20 166 l0 165 -32 -3 c-31 -3 -32 -5 -76 -136 -24 -73 -46
-131 -49 -128 -3 3 -24 63 -47 133 l-42 128 -37 3 -37 3 0 -165z"/>
<path d="M7250 2725 l0 -165 120 0 c113 0 120 1 120 20 0 19 -7 20 -100 20
l-100 0 0 55 0 55 90 0 c83 0 90 1 90 20 0 19 -7 20 -90 20 l-90 0 0 50 0 50
95 0 c88 0 95 1 95 20 0 19 -7 20 -115 20 l-115 0 0 -165z"/>
<path d="M7800 2726 c0 -159 1 -166 20 -166 18 0 20 7 20 75 l0 75 36 0 c51 0
66 -11 114 -85 33 -50 48 -65 66 -65 13 0 24 2 24 5 0 10 -54 90 -78 117 l-25
27 25 10 c58 22 75 90 34 138 -23 27 -28 28 -130 31 l-106 4 0 -166z m191 114
c12 -7 19 -21 19 -40 0 -39 -23 -50 -104 -50 l-66 0 0 50 0 50 66 0 c36 0 74
-5 85 -10z"/>
</g>
</svg>
