<svg width="40" height="40" viewBox="0 0 40 40" fill="none" xmlns="http://www.w3.org/2000/svg">
<path d="M12.667 36.808V23.6667M12.667 23.6667L20.0003 10.8334L27.3337 23.6667M12.667 23.6667C12.667 23.6667 14.7332 25.5001 16.3337 25.5001C17.9342 25.5001 20.0003 23.6667 20.0003 23.6667C20.0003 23.6667 22.0665 25.5001 23.667 25.5001C25.2675 25.5001 27.3337 23.6667 27.3337 23.6667M27.3337 23.6667V36.808M20.0003 1.66675C9.87483 1.66675 1.66699 9.87458 1.66699 20.0001C1.66699 30.1256 9.87483 38.3334 20.0003 38.3334C30.1258 38.3334 38.3337 30.1256 38.3337 20.0001C38.3337 9.87458 30.1258 1.66675 20.0003 1.66675Z" stroke="white" stroke-width="2.5" stroke-linecap="round" stroke-linejoin="round"/>
</svg>
